<svg id="TOP_2" data-name="TOP 2" xmlns="http://www.w3.org/2000/svg" width="150.22" height="169.505" viewBox="0 0 148 167">
  <defs>
    <style>
      .cls-1, .cls-4 {
        fill: #fff;
      }

      .cls-1, .cls-2 {
        fill-rule: evenodd;
      }

      .cls-2, .cls-3 {
        fill: #09d3a7;
      }

      .cls-4 {
        font-size: 19px;
        text-anchor: middle;
        font-family: IcoFont;
      }
    </style>
  </defs>
  <path id="ATW" class="cls-1" d="M122.363,115.059H109.87l-0.057-20.879c0-.627.171-1.483-0.228-1.54s-0.8.97-1.084,1.654L99.83,115.059H87.623L85.417,82.827c-0.676-.015-8.35-0.146-10.259,1.6-1.654,1.483-2.111,3.023-2.624,5.191l-6.617,25.442H53.425l8.043-31.146A1.037,1.037,0,0,0,61.411,83a0.966,0.966,0,0,0-.8-0.171h-10.9l1.2-4.449H96.807v27.61c0,0.855,0,2.167.627,2.167,0.342,0,.742-0.912,1.027-1.54l12.493-28.237H120.2V107.3c0,0.684-.114,1.6.4,1.6s0.855-.97,1.254-1.654l10.44-18.6a4.524,4.524,0,0,0,.228-4.564c-1.084-2.168-6.1-1.825-6.1-1.825l1.54-3.879h17.285ZM34.97,86.993c-0.057-.913.114-2.168-0.8-2.282-0.684-.057-1.084.684-1.483,1.255l-9.7,13.8a1.834,1.834,0,0,0-.57,1.483,1.08,1.08,0,0,0,1.255.628h10.04L32.4,105.989s-8.785-.742-13.006,1.255c-3.879,1.882-5.248,5.362-7.7,7.815H4.565L31.49,78.379H45.865l2.282,36.68H36.453Z"/>
  <path id="Rounded_Rectangle_2" data-name="Rounded Rectangle 2" class="cls-2" d="M82.617,4.3L112.66,34.34a11.482,11.482,0,0,1,0,16.239L93.117,70.122l-37.67-.431L36.335,50.579a11.483,11.483,0,0,1,0-16.239L66.378,4.3A11.483,11.483,0,0,1,82.617,4.3Z"/>
  <path class="cls-1" d="M68.343,154H79.657L74,159.657Z"/>
  <path id="Rounded_Rectangle_3" data-name="Rounded Rectangle 3" class="cls-2" d="M91.849,146.879c1.172,1.171-.828,2.071-2,3.242L77.121,162.849a3,3,0,0,1-4.243,0L60.151,150.121c-1.172-1.171-3.172-2.071-2-3.242h33.7Z"/>
  <rect class="cls-3" y="147" width="146" height="1"/>
  <path class="cls-1" d="M69.343,151H80.657L75,156.657Z"/>
  <text id="_" data-name="" class="cls-4" transform="translate(73.056 55.018) scale(2.367)"><tspan x="0"></tspan></text>
  <path id="GamePanel" class="cls-2" d="M12.317,139.811a8.4,8.4,0,0,0,6.07-2.287v-8.278H11.932v2.077H16.1v5.128a5.334,5.334,0,0,1-3.548,1.156c-4.2,0-6.542-3.1-6.542-8.052,0-4.906,2.549-7.955,6.517-7.955a5.525,5.525,0,0,1,4.239,1.791l1.373-1.565a7.56,7.56,0,0,0-5.679-2.429c-5.221,0-9.039,3.872-9.039,10.224C3.424,136.017,7.122,139.811,12.317,139.811Zm13.6,0a7.585,7.585,0,0,0,4.779-2.1h0.1l0.23,1.736h2.068V130.5c0-3.635-1.535-6.008-5.08-6.008a10.536,10.536,0,0,0-5.736,1.9l0.959,1.691a8.335,8.335,0,0,1,4.35-1.5c2.375,0,2.975,1.77,2.989,3.595-6.224.684-8.943,2.258-8.943,5.487A3.975,3.975,0,0,0,25.916,139.811Zm0.686-2.055c-1.409,0-2.5-.62-2.5-2.251,0-1.872,1.572-2.981,6.474-3.554v3.933A5.831,5.831,0,0,1,26.6,137.756Zm10.764,1.694h2.468V128.888c1.349-1.5,2.562-2.24,3.655-2.24,1.855,0,2.714,1.163,2.714,3.879v8.923h2.468V128.888c1.349-1.5,2.524-2.24,3.655-2.24,1.855,0,2.714,1.163,2.714,3.879v8.923H57.51v-9.241c0-3.721-1.44-5.7-4.438-5.7-1.775,0-3.3,1.14-4.811,2.779a3.848,3.848,0,0,0-4.027-2.779A6.485,6.485,0,0,0,39.7,126.98H39.614l-0.208-2.115H37.366V139.45Zm30.455,0.361a8.072,8.072,0,0,0,4.846-1.491l-0.9-1.617a6.408,6.408,0,0,1-3.63,1.089c-2.758,0-4.574-1.973-4.794-4.968h9.789a7.016,7.016,0,0,0,.134-1.475c0-4.187-2.137-6.859-5.861-6.859-3.346,0-6.568,2.917-6.568,7.672C60.838,136.99,63.926,139.811,67.821,139.811Zm-4.477-8.931c0.3-2.777,2.088-4.372,4.117-4.372,2.222,0,3.544,1.515,3.544,4.372H63.344Zm13.4,8.57h2.506v-7.812h3.238c4.308,0,7.271-1.937,7.271-6.082,0-4.315-2.978-5.8-7.391-5.8H76.746V139.45Zm2.506-9.844V121.79h2.8c3.46,0,5.207.925,5.207,3.766,0,2.8-1.643,4.05-5.087,4.05H79.252Zm16.023,10.205a7.585,7.585,0,0,0,4.78-2.1h0.1l0.23,1.736h2.069V130.5c0-3.635-1.536-6.008-5.081-6.008a10.536,10.536,0,0,0-5.736,1.9l0.959,1.691a8.335,8.335,0,0,1,4.35-1.5c2.375,0,2.975,1.77,2.989,3.595-6.224.684-8.943,2.258-8.943,5.487A3.974,3.974,0,0,0,95.276,139.811Zm0.686-2.055c-1.409,0-2.5-.62-2.5-2.251,0-1.872,1.572-2.981,6.474-3.554v3.933A5.831,5.831,0,0,1,95.961,137.756Zm10.765,1.694h2.468V128.888c1.463-1.479,2.5-2.24,3.987-2.24,1.93,0,2.752,1.163,2.752,3.879v8.923H118.4v-9.241c0-3.721-1.38-5.7-4.453-5.7-2,0-3.5,1.1-4.893,2.463h-0.082l-0.208-2.1h-2.039V139.45Zm21.994,0.361a8.073,8.073,0,0,0,4.846-1.491l-0.9-1.617a6.407,6.407,0,0,1-3.629,1.089c-2.758,0-4.574-1.973-4.8-4.968h9.79a7.071,7.071,0,0,0,.133-1.475c0-4.187-2.137-6.859-5.861-6.859-3.346,0-6.568,2.917-6.568,7.672C121.737,136.99,124.825,139.811,128.72,139.811Zm-4.477-8.931c0.3-2.777,2.089-4.372,4.117-4.372,2.222,0,3.544,1.515,3.544,4.372h-7.661Zm15.783,8.931a3.33,3.33,0,0,0,1.421-.269l-0.335-1.846a1.744,1.744,0,0,1-.5.06c-0.4,0-.727-0.262-0.727-1.055V118.073h-2.468v18.448C137.415,138.63,138.176,139.811,140.026,139.811Z"/>
</svg>
