<?xml version="1.0" standalone="no"?>
<!DOCTYPE svg PUBLIC "-//W3C//DTD SVG 20010904//EN"
 "http://www.w3.org/TR/2001/REC-SVG-20010904/DTD/svg10.dtd">
<svg version="1.0" xmlns="http://www.w3.org/2000/svg"
 width="256.000000pt" height="256.000000pt" viewBox="0 0 256.000000 256.000000"
 preserveAspectRatio="xMidYMid meet">
<metadata>
Created by potrace 1.11, written by Peter Selinger 2001-2013
</metadata>
<g transform="translate(0.000000,256.000000) scale(0.100000,-0.100000)"
fill="#000000" stroke="none">
<path d="M1183 2325 c-18 -8 -33 -12 -33 -10 0 3 -22 -9 -48 -25 -54 -33 -997
-970 -1042 -1035 -69 -100 -77 -237 -20 -350 24 -50 82 -113 342 -371 l313
-312 105 0 c58 0 319 -3 580 -6 l475 -7 322 323 c371 373 377 381 377 523 -1
162 11 147 -563 721 -563 562 -556 557 -700 561 -47 1 -89 -4 -108 -12z m37
-485 c0 7 6 8 19 1 10 -6 20 -8 23 -6 8 9 110 -26 149 -51 21 -13 51 -36 66
-51 32 -31 93 -117 93 -130 0 -21 23 -31 48 -22 31 12 109 -3 167 -32 58 -30
117 -118 129 -192 1 -7 5 -17 8 -23 14 -22 0 -122 -24 -175 -23 -50 -81 -119
-100 -119 -4 0 -17 -9 -27 -19 -18 -18 -18 -24 -7 -68 16 -60 13 -345 -4 -388
-11 -30 -79 -100 -87 -91 -3 3 -16 0 -30 -5 -48 -18 -100 -14 -137 12 -19 13
-33 26 -31 29 2 3 -10 23 -26 45 -16 22 -32 47 -35 55 -3 8 -28 30 -56 48 -59
39 -110 46 -182 23 -55 -18 -86 -44 -133 -113 -41 -60 -104 -100 -162 -103
-49 -3 -88 14 -138 60 -27 25 -34 40 -41 93 -10 74 -9 336 2 374 6 21 4 27
-11 32 -32 10 -88 72 -116 128 -81 160 12 363 181 394 32 6 50 29 64 81 3 9
16 26 61 79 53 62 156 115 249 129 24 4 45 8 47 10 2 3 12 0 22 -6 13 -7 19
-6 19 1z"/>
<path d="M1119 1754 c-78 -20 -122 -45 -174 -98 -32 -33 -57 -70 -68 -103 -20
-57 -43 -82 -69 -78 -10 2 -18 -1 -18 -6 0 -5 -8 -9 -18 -9 -10 0 -28 -7 -40
-16 -12 -8 -22 -12 -22 -9 0 4 -16 -12 -35 -35 -36 -43 -55 -93 -55 -146 0
-45 46 -130 84 -154 36 -22 66 -26 66 -10 0 16 50 58 95 79 43 20 82 29 158
36 27 3 52 7 56 9 4 3 7 26 6 51 -3 50 14 68 58 65 55 -5 54 -7 53 98 l-1 97
37 0 c44 1 44 -1 42 -112 -1 -88 1 -91 55 -83 8 1 25 -4 38 -11 19 -10 23 -20
23 -61 l0 -48 38 -1 c42 -1 70 -5 127 -20 56 -15 84 -32 127 -73 41 -40 53
-39 95 6 26 28 60 102 66 143 19 142 -125 263 -275 232 -31 -6 -43 6 -79 78
-68 138 -228 216 -370 179z"/>
<path d="M1169 1255 c0 0 -3 -11 -5 -25 -4 -25 -4 -25 68 -22 77 4 92 9 79 30
-6 10 -66 17 -142 17z"/>
<path d="M1459 1014 c-7 -9 -12 -31 -11 -49 2 -30 0 -34 -20 -33 -52 2 -66 -3
-72 -24 -7 -31 15 -51 59 -54 35 -1 36 0 34 30 -4 42 5 54 38 50 31 -3 43 9
43 47 0 45 -44 66 -71 33z"/>
<path d="M920 1003 c-31 -12 -59 -50 -64 -89 -17 -111 121 -170 195 -84 41 48
30 128 -23 162 -24 15 -83 21 -108 11z"/>
<path d="M1534 925 c-4 -9 -4 -25 -1 -36 4 -14 -1 -23 -16 -28 -12 -5 -25 -7
-29 -4 -4 2 -16 -1 -26 -6 -22 -12 -19 -63 4 -82 27 -22 62 4 66 48 3 32 6 37
29 38 43 3 59 13 59 39 0 29 -11 38 -52 42 -19 3 -31 -2 -34 -11z"/>
</g>
</svg>
